<svg width="34" height="34" viewBox="0 0 34 34" fill="none" xmlns="http://www.w3.org/2000/svg">
  <g clip-path="url(#clip0_39_6471)">
    <path
      d="M34 21.3828C33.9666 19.5428 33.2823 17.7742 32.0685 16.391C30.8547 15.0077 29.19 14.0994 27.37 13.8272C27.2958 11.2637 26.2123 8.8331 24.3551 7.06439C22.498 5.29567 20.0175 4.3319 17.4533 4.38278C15.3887 4.36166 13.369 4.98549 11.676 6.16724C9.98292 7.34899 8.70095 9.02974 8.00889 10.975C5.80821 11.258 3.78449 12.3284 2.31213 13.9883C0.839765 15.6482 0.0184041 17.7852 0 20.0039C0.0886572 22.4724 1.14085 24.8079 2.93102 26.5098C4.72119 28.2117 7.10687 29.1445 9.57667 29.1083H10.4078H25.9156C26.0534 29.128 26.1933 29.128 26.3311 29.1083C28.3641 29.074 30.3033 28.2472 31.7357 26.8042C33.1682 25.3612 33.9806 23.4159 34 21.3828Z"
      fill="url(#paint0_linear_39_6471)" />
    <path
      d="M23.2901 12.4478C22.6976 11.465 21.827 10.6801 20.7883 10.1924C19.7496 9.70469 18.5895 9.53612 17.455 9.70802C16.3204 9.87992 15.2624 10.3846 14.4148 11.1581C13.5671 11.9316 12.9681 12.9392 12.6934 14.0533C12.3568 15.5102 12.5792 17.0404 13.3167 18.3411L8.89672 22.8178C8.75737 22.9564 8.64679 23.1213 8.57133 23.3028C8.49587 23.4843 8.45703 23.679 8.45703 23.8756C8.45703 24.0721 8.49587 24.2668 8.57133 24.4483C8.64679 24.6298 8.75737 24.7947 8.89672 24.9333C9.03518 25.0726 9.20009 25.1828 9.38174 25.2574C9.56339 25.332 9.75813 25.3695 9.95449 25.3678C10.1512 25.3717 10.3465 25.3352 10.5285 25.2604C10.7105 25.1857 10.8751 25.0744 11.0123 24.9333L15.4134 20.4756C15.8918 20.7537 16.4068 20.9635 16.9434 21.0989C18.0578 21.3665 19.2265 21.299 20.3027 20.9048C21.379 20.5107 22.3148 19.8074 22.9928 18.8833C23.6707 17.9591 24.0606 16.8553 24.1135 15.7104C24.1664 14.5655 23.8799 13.4305 23.2901 12.4478ZM22.2701 16.4144C22.0548 17.3003 21.5491 18.0886 20.8335 18.6535C20.118 19.2184 19.2339 19.5273 18.3223 19.5311C17.9965 19.5337 17.672 19.4891 17.3589 19.3989C16.8811 19.2913 16.4308 19.0854 16.0367 18.7944C15.6211 18.5111 15.2623 18.1523 14.9789 17.7367C14.6588 17.2629 14.4414 16.7275 14.3405 16.1647C14.2397 15.6019 14.2577 15.0243 14.3934 14.4689C14.5981 13.5794 15.0978 12.7855 15.8112 12.2161C16.5245 11.6468 17.4096 11.3357 18.3223 11.3333C18.6529 11.3338 18.9824 11.3718 19.3045 11.4467C20.3517 11.7238 21.2475 12.4025 21.7978 13.3356C22.0772 13.7916 22.2629 14.2988 22.344 14.8274C22.4251 15.3561 22.3999 15.8956 22.2701 16.4144Z"
      fill="#F2F2F2" />
    <path
      d="M18.3033 19.5311C20.5462 19.5311 22.3644 17.7044 22.3644 15.4511C22.3644 13.1978 20.5462 11.3711 18.3033 11.3711C16.0604 11.3711 14.2422 13.1978 14.2422 15.4511C14.2422 17.7044 16.0604 19.5311 18.3033 19.5311Z"
      fill="#83B9F9" />
  </g>
  <defs>
    <linearGradient id="paint0_linear_39_6471" x1="17" y1="0.680553" x2="17" y2="34.5861"
      gradientUnits="userSpaceOnUse">
      <stop offset="0.18" stop-color="#5EA0EF" />
      <stop offset="1" stop-color="#0078D4" />
    </linearGradient>
    <clipPath id="clip0_39_6471">
      <rect width="34" height="34" fill="white" />
    </clipPath>
  </defs>
</svg>